<mxfile host="Electron" agent="Mozilla/5.0 (Macintosh; Intel Mac OS X 10_15_7) AppleWebKit/537.36 (KHTML, like Gecko) draw.io/24.7.17 Chrome/128.0.6613.36 Electron/32.0.1 Safari/537.36" version="24.7.17">
  <diagram name="Page-1" id="b5b7bab2-c9e2-2cf4-8b2a-24fd1a2a6d21">
    <mxGraphModel dx="2021" dy="824" grid="1" gridSize="10" guides="1" tooltips="1" connect="1" arrows="1" fold="1" page="1" pageScale="1" pageWidth="827" pageHeight="1169" background="none" math="0" shadow="0">
      <root>
        <mxCell id="0" />
        <mxCell id="1" parent="0" />
        <mxCell id="2JzpM0NDCvzyGTfC6hWj-61" value="" style="ellipse;shape=cloud;whiteSpace=wrap;html=1;" parent="1" vertex="1">
          <mxGeometry x="-50" y="863" width="230" height="150" as="geometry" />
        </mxCell>
        <mxCell id="2JzpM0NDCvzyGTfC6hWj-60" value="" style="ellipse;shape=cloud;whiteSpace=wrap;html=1;" parent="1" vertex="1">
          <mxGeometry x="-30" y="70" width="227.5" height="160" as="geometry" />
        </mxCell>
        <mxCell id="2JzpM0NDCvzyGTfC6hWj-1" value="GitHub&lt;br&gt;ambulance-gitops" style="shape=cylinder3;whiteSpace=wrap;html=1;boundedLbl=1;backgroundOutline=1;size=15;" parent="1" vertex="1">
          <mxGeometry x="45" y="120.5" width="100" height="80" as="geometry" />
        </mxCell>
        <mxCell id="2JzpM0NDCvzyGTfC6hWj-5" style="edgeStyle=orthogonalEdgeStyle;rounded=0;orthogonalLoop=1;jettySize=auto;html=1;exitX=1;exitY=0;exitDx=0;exitDy=52.5;exitPerimeter=0;entryX=0;entryY=0;entryDx=90;entryDy=17;entryPerimeter=0;strokeColor=#660000;" parent="1" source="2JzpM0NDCvzyGTfC6hWj-1" target="6e0c8c40b5770093-4" edge="1">
          <mxGeometry relative="1" as="geometry" />
        </mxCell>
        <mxCell id="2JzpM0NDCvzyGTfC6hWj-6" value="clone main" style="edgeLabel;html=1;align=center;verticalAlign=middle;resizable=0;points=[];" parent="2JzpM0NDCvzyGTfC6hWj-5" vertex="1" connectable="0">
          <mxGeometry x="0.2484" y="1" relative="1" as="geometry">
            <mxPoint as="offset" />
          </mxGeometry>
        </mxCell>
        <mxCell id="2JzpM0NDCvzyGTfC6hWj-7" value="local clone" style="shape=cylinder3;whiteSpace=wrap;html=1;boundedLbl=1;backgroundOutline=1;size=15;" parent="1" vertex="1">
          <mxGeometry x="540" y="244.5" width="100" height="80" as="geometry" />
        </mxCell>
        <mxCell id="2JzpM0NDCvzyGTfC6hWj-9" value="" style="edgeStyle=orthogonalEdgeStyle;rounded=0;orthogonalLoop=1;jettySize=auto;html=1;strokeColor=#660000;" parent="1" source="6e0c8c40b5770093-4" target="2JzpM0NDCvzyGTfC6hWj-7" edge="1">
          <mxGeometry relative="1" as="geometry" />
        </mxCell>
        <mxCell id="6e0c8c40b5770093-4" value="&amp;lt;&amp;lt;GitRepository&amp;gt;&amp;gt;&lt;br&gt;gitops-repo" style="shape=folder;fontStyle=1;spacingTop=10;tabWidth=50;tabHeight=17;tabPosition=left;html=1;rounded=0;shadow=0;comic=0;labelBackgroundColor=none;strokeWidth=1;fontFamily=Verdana;fontSize=10;align=center;" parent="1" vertex="1">
          <mxGeometry x="345" y="249.5" width="130" height="70" as="geometry" />
        </mxCell>
        <mxCell id="2JzpM0NDCvzyGTfC6hWj-11" value="&amp;lt;&amp;lt;Kustomization&amp;gt;&amp;gt;&lt;br&gt;cd" style="shape=folder;fontStyle=1;spacingTop=10;tabWidth=50;tabHeight=17;tabPosition=left;html=1;rounded=0;shadow=0;comic=0;labelBackgroundColor=none;strokeWidth=1;fontFamily=Verdana;fontSize=10;align=center;" parent="1" vertex="1">
          <mxGeometry x="287" y="370" width="130" height="70" as="geometry" />
        </mxCell>
        <mxCell id="2JzpM0NDCvzyGTfC6hWj-47" style="edgeStyle=orthogonalEdgeStyle;rounded=0;orthogonalLoop=1;jettySize=auto;html=1;strokeColor=#0000CC;" parent="1" source="2JzpM0NDCvzyGTfC6hWj-12" target="2JzpM0NDCvzyGTfC6hWj-46" edge="1">
          <mxGeometry relative="1" as="geometry" />
        </mxCell>
        <mxCell id="2JzpM0NDCvzyGTfC6hWj-48" value="deploys" style="edgeLabel;html=1;align=center;verticalAlign=middle;resizable=0;points=[];" parent="2JzpM0NDCvzyGTfC6hWj-47" vertex="1" connectable="0">
          <mxGeometry x="-0.3468" y="1" relative="1" as="geometry">
            <mxPoint x="-16" y="-14" as="offset" />
          </mxGeometry>
        </mxCell>
        <mxCell id="2JzpM0NDCvzyGTfC6hWj-12" value="&amp;lt;&amp;lt;Kustomization&amp;gt;&amp;gt;&lt;br&gt;prepare" style="shape=folder;fontStyle=1;spacingTop=10;tabWidth=50;tabHeight=17;tabPosition=left;html=1;rounded=0;shadow=0;comic=0;labelBackgroundColor=none;strokeWidth=1;fontFamily=Verdana;fontSize=10;align=center;" parent="1" vertex="1">
          <mxGeometry x="482.5" y="370" width="130" height="70" as="geometry" />
        </mxCell>
        <mxCell id="2JzpM0NDCvzyGTfC6hWj-13" value="&amp;lt;&amp;lt;Kustomization&amp;gt;&amp;gt;&lt;br&gt;install" style="shape=folder;fontStyle=1;spacingTop=10;tabWidth=50;tabHeight=17;tabPosition=left;html=1;rounded=0;shadow=0;comic=0;labelBackgroundColor=none;strokeWidth=1;fontFamily=Verdana;fontSize=10;align=center;" parent="1" vertex="1">
          <mxGeometry x="482.5" y="480" width="130" height="70" as="geometry" />
        </mxCell>
        <mxCell id="2JzpM0NDCvzyGTfC6hWj-34" style="edgeStyle=orthogonalEdgeStyle;rounded=0;orthogonalLoop=1;jettySize=auto;html=1;entryX=0.5;entryY=0;entryDx=0;entryDy=0;entryPerimeter=0;strokeColor=#660000;" parent="1" source="2JzpM0NDCvzyGTfC6hWj-14" target="2JzpM0NDCvzyGTfC6hWj-33" edge="1">
          <mxGeometry relative="1" as="geometry">
            <Array as="points">
              <mxPoint x="55" y="715" />
            </Array>
          </mxGeometry>
        </mxCell>
        <mxCell id="2JzpM0NDCvzyGTfC6hWj-38" style="edgeStyle=orthogonalEdgeStyle;rounded=0;orthogonalLoop=1;jettySize=auto;html=1;exitX=0;exitY=0;exitDx=150;exitDy=43.5;exitPerimeter=0;entryX=0;entryY=0;entryDx=0;entryDy=43.5;entryPerimeter=0;strokeColor=#660000;" parent="1" source="2JzpM0NDCvzyGTfC6hWj-14" target="2JzpM0NDCvzyGTfC6hWj-16" edge="1">
          <mxGeometry relative="1" as="geometry" />
        </mxCell>
        <mxCell id="2JzpM0NDCvzyGTfC6hWj-14" value="&amp;lt;&amp;lt;ImageRepository&amp;gt;&amp;gt;&lt;br&gt;ambulance-ufe" style="shape=folder;fontStyle=1;spacingTop=10;tabWidth=50;tabHeight=17;tabPosition=left;html=1;rounded=0;shadow=0;comic=0;labelBackgroundColor=none;strokeWidth=1;fontFamily=Verdana;fontSize=10;align=center;" parent="1" vertex="1">
          <mxGeometry x="135" y="680" width="150" height="70" as="geometry" />
        </mxCell>
        <mxCell id="2JzpM0NDCvzyGTfC6hWj-36" style="edgeStyle=orthogonalEdgeStyle;rounded=0;orthogonalLoop=1;jettySize=auto;html=1;strokeColor=#660000;" parent="1" source="2JzpM0NDCvzyGTfC6hWj-15" target="2JzpM0NDCvzyGTfC6hWj-33" edge="1">
          <mxGeometry relative="1" as="geometry" />
        </mxCell>
        <mxCell id="2JzpM0NDCvzyGTfC6hWj-37" value="Get Tags" style="edgeLabel;html=1;align=center;verticalAlign=middle;resizable=0;points=[];rotation=-90;" parent="2JzpM0NDCvzyGTfC6hWj-36" vertex="1" connectable="0">
          <mxGeometry x="-0.4765" relative="1" as="geometry">
            <mxPoint x="-52" y="15" as="offset" />
          </mxGeometry>
        </mxCell>
        <mxCell id="2JzpM0NDCvzyGTfC6hWj-39" style="edgeStyle=orthogonalEdgeStyle;rounded=0;orthogonalLoop=1;jettySize=auto;html=1;entryX=0;entryY=0;entryDx=0;entryDy=56.75;entryPerimeter=0;strokeColor=#660000;exitX=0;exitY=0;exitDx=150;exitDy=56.75;exitPerimeter=0;" parent="1" source="2JzpM0NDCvzyGTfC6hWj-15" target="2JzpM0NDCvzyGTfC6hWj-17" edge="1">
          <mxGeometry relative="1" as="geometry" />
        </mxCell>
        <mxCell id="2JzpM0NDCvzyGTfC6hWj-15" value="&amp;lt;&amp;lt;ImageRepository&amp;gt;&amp;gt;&lt;br&gt;polyfea-controller" style="shape=folder;fontStyle=1;spacingTop=10;tabWidth=50;tabHeight=17;tabPosition=left;html=1;rounded=0;shadow=0;comic=0;labelBackgroundColor=none;strokeWidth=1;fontFamily=Verdana;fontSize=10;align=center;" parent="1" vertex="1">
          <mxGeometry x="135" y="780" width="150" height="70" as="geometry" />
        </mxCell>
        <mxCell id="2JzpM0NDCvzyGTfC6hWj-16" value="&amp;lt;&amp;lt;ImagePolicy&amp;gt;&amp;gt;&lt;br&gt;ambulance-ufe" style="shape=folder;fontStyle=1;spacingTop=10;tabWidth=50;tabHeight=17;tabPosition=left;html=1;rounded=0;shadow=0;comic=0;labelBackgroundColor=none;strokeWidth=1;fontFamily=Verdana;fontSize=10;align=center;" parent="1" vertex="1">
          <mxGeometry x="335" y="680" width="150" height="70" as="geometry" />
        </mxCell>
        <mxCell id="2JzpM0NDCvzyGTfC6hWj-17" value="&amp;lt;&amp;lt;ImagePolicy&amp;gt;&amp;gt;&lt;br&gt;polyfea-controller" style="shape=folder;fontStyle=1;spacingTop=10;tabWidth=50;tabHeight=17;tabPosition=left;html=1;rounded=0;shadow=0;comic=0;labelBackgroundColor=none;strokeWidth=1;fontFamily=Verdana;fontSize=10;align=center;" parent="1" vertex="1">
          <mxGeometry x="375" y="780" width="150" height="70" as="geometry" />
        </mxCell>
        <mxCell id="2JzpM0NDCvzyGTfC6hWj-18" value="" style="endArrow=classic;html=1;rounded=0;exitX=0;exitY=0;exitDx=130;exitDy=43.5;exitPerimeter=0;entryX=0;entryY=0;entryDx=0;entryDy=43.5;entryPerimeter=0;strokeColor=#009900;" parent="1" source="2JzpM0NDCvzyGTfC6hWj-11" target="2JzpM0NDCvzyGTfC6hWj-12" edge="1">
          <mxGeometry relative="1" as="geometry">
            <mxPoint x="370" y="460" as="sourcePoint" />
            <mxPoint x="470" y="460" as="targetPoint" />
          </mxGeometry>
        </mxCell>
        <mxCell id="2JzpM0NDCvzyGTfC6hWj-19" value="updates" style="edgeLabel;resizable=0;html=1;align=center;verticalAlign=middle;" parent="2JzpM0NDCvzyGTfC6hWj-18" connectable="0" vertex="1">
          <mxGeometry relative="1" as="geometry">
            <mxPoint x="4" y="-8" as="offset" />
          </mxGeometry>
        </mxCell>
        <mxCell id="2JzpM0NDCvzyGTfC6hWj-20" value="" style="endArrow=classic;html=1;rounded=0;exitX=0.5;exitY=1;exitDx=0;exitDy=0;exitPerimeter=0;entryX=0;entryY=0;entryDx=0;entryDy=43.5;entryPerimeter=0;edgeStyle=orthogonalEdgeStyle;strokeColor=#009900;" parent="1" source="2JzpM0NDCvzyGTfC6hWj-11" target="2JzpM0NDCvzyGTfC6hWj-13" edge="1">
          <mxGeometry relative="1" as="geometry">
            <mxPoint x="500" y="423.5" as="sourcePoint" />
            <mxPoint x="605.5" y="423.5" as="targetPoint" />
          </mxGeometry>
        </mxCell>
        <mxCell id="2JzpM0NDCvzyGTfC6hWj-21" value="updates" style="edgeLabel;resizable=0;html=1;align=center;verticalAlign=middle;" parent="2JzpM0NDCvzyGTfC6hWj-20" connectable="0" vertex="1">
          <mxGeometry relative="1" as="geometry">
            <mxPoint x="5" y="22" as="offset" />
          </mxGeometry>
        </mxCell>
        <mxCell id="2JzpM0NDCvzyGTfC6hWj-22" value="" style="endArrow=classic;html=1;rounded=0;exitX=0.5;exitY=1;exitDx=0;exitDy=0;exitPerimeter=0;entryX=0;entryY=0;entryDx=100;entryDy=17;entryPerimeter=0;edgeStyle=orthogonalEdgeStyle;strokeColor=#009900;" parent="1" source="2JzpM0NDCvzyGTfC6hWj-11" target="2JzpM0NDCvzyGTfC6hWj-16" edge="1">
          <mxGeometry relative="1" as="geometry">
            <mxPoint x="421.5" y="440" as="sourcePoint" />
            <mxPoint x="527" y="550" as="targetPoint" />
          </mxGeometry>
        </mxCell>
        <mxCell id="2JzpM0NDCvzyGTfC6hWj-24" value="" style="endArrow=classic;html=1;rounded=0;exitX=0.5;exitY=1;exitDx=0;exitDy=0;exitPerimeter=0;entryX=0;entryY=0;entryDx=100;entryDy=17;entryPerimeter=0;edgeStyle=orthogonalEdgeStyle;strokeColor=#009900;" parent="1" source="2JzpM0NDCvzyGTfC6hWj-11" target="2JzpM0NDCvzyGTfC6hWj-14" edge="1">
          <mxGeometry relative="1" as="geometry">
            <mxPoint x="441.95" y="460" as="sourcePoint" />
            <mxPoint x="385.0499999999999" y="717.8499999999999" as="targetPoint" />
          </mxGeometry>
        </mxCell>
        <mxCell id="2JzpM0NDCvzyGTfC6hWj-26" value="" style="endArrow=classic;html=1;rounded=0;exitX=0.5;exitY=1;exitDx=0;exitDy=0;exitPerimeter=0;entryX=0.917;entryY=0.248;entryDx=0;entryDy=0;entryPerimeter=0;edgeStyle=orthogonalEdgeStyle;strokeColor=#009900;" parent="1" source="2JzpM0NDCvzyGTfC6hWj-11" target="2JzpM0NDCvzyGTfC6hWj-17" edge="1">
          <mxGeometry relative="1" as="geometry">
            <mxPoint x="490" y="480" as="sourcePoint" />
            <mxPoint x="433.0999999999999" y="737.8499999999999" as="targetPoint" />
            <Array as="points">
              <mxPoint x="352" y="560" />
              <mxPoint x="513" y="560" />
            </Array>
          </mxGeometry>
        </mxCell>
        <mxCell id="2JzpM0NDCvzyGTfC6hWj-27" value="updates" style="edgeLabel;resizable=0;html=1;align=center;verticalAlign=middle;" parent="2JzpM0NDCvzyGTfC6hWj-26" connectable="0" vertex="1">
          <mxGeometry relative="1" as="geometry">
            <mxPoint x="-208" y="-33" as="offset" />
          </mxGeometry>
        </mxCell>
        <mxCell id="2JzpM0NDCvzyGTfC6hWj-28" value="" style="endArrow=classic;html=1;rounded=0;entryX=0;entryY=0;entryDx=150;entryDy=43.5;entryPerimeter=0;exitX=0.5;exitY=1;exitDx=0;exitDy=0;exitPerimeter=0;edgeStyle=orthogonalEdgeStyle;strokeColor=#009900;" parent="1" source="2JzpM0NDCvzyGTfC6hWj-11" target="2JzpM0NDCvzyGTfC6hWj-15" edge="1">
          <mxGeometry relative="1" as="geometry">
            <mxPoint x="420" y="440" as="sourcePoint" />
            <mxPoint x="431.20000000000005" y="811.8399999999999" as="targetPoint" />
            <Array as="points">
              <mxPoint x="352" y="560" />
              <mxPoint x="300" y="560" />
              <mxPoint x="300" y="823" />
            </Array>
          </mxGeometry>
        </mxCell>
        <mxCell id="2JzpM0NDCvzyGTfC6hWj-31" value="" style="endArrow=classic;html=1;rounded=0;strokeColor=#009900;exitX=0;exitY=0;exitDx=90;exitDy=17;exitPerimeter=0;entryX=0.25;entryY=1;entryDx=0;entryDy=0;entryPerimeter=0;" parent="1" source="2JzpM0NDCvzyGTfC6hWj-11" target="6e0c8c40b5770093-4" edge="1">
          <mxGeometry relative="1" as="geometry">
            <mxPoint x="500" y="423.5" as="sourcePoint" />
            <mxPoint x="490" y="320" as="targetPoint" />
          </mxGeometry>
        </mxCell>
        <mxCell id="2JzpM0NDCvzyGTfC6hWj-32" value="updates" style="edgeLabel;resizable=0;html=1;align=center;verticalAlign=middle;rotation=-90;" parent="2JzpM0NDCvzyGTfC6hWj-31" connectable="0" vertex="1">
          <mxGeometry relative="1" as="geometry">
            <mxPoint x="-10" as="offset" />
          </mxGeometry>
        </mxCell>
        <mxCell id="2JzpM0NDCvzyGTfC6hWj-33" value="Docker Hub" style="shape=cylinder3;whiteSpace=wrap;html=1;boundedLbl=1;backgroundOutline=1;size=15;" parent="1" vertex="1">
          <mxGeometry x="5" y="898" width="100" height="80" as="geometry" />
        </mxCell>
        <mxCell id="2JzpM0NDCvzyGTfC6hWj-40" value="&amp;lt;&amp;lt;ImageUpdateAutomation&amp;gt;&amp;gt;&lt;br&gt;image-updater" style="shape=folder;fontStyle=1;spacingTop=10;tabWidth=50;tabHeight=17;tabPosition=left;html=1;rounded=0;shadow=0;comic=0;labelBackgroundColor=none;strokeWidth=1;fontFamily=Verdana;fontSize=10;align=center;" parent="1" vertex="1">
          <mxGeometry x="7" y="510" width="200" height="70" as="geometry" />
        </mxCell>
        <mxCell id="2JzpM0NDCvzyGTfC6hWj-41" style="edgeStyle=orthogonalEdgeStyle;rounded=0;orthogonalLoop=1;jettySize=auto;html=1;exitX=0.78;exitY=0.254;exitDx=0;exitDy=0;exitPerimeter=0;entryX=0.75;entryY=1;entryDx=0;entryDy=0;entryPerimeter=0;strokeColor=#660000;" parent="1" source="2JzpM0NDCvzyGTfC6hWj-17" target="2JzpM0NDCvzyGTfC6hWj-40" edge="1">
          <mxGeometry relative="1" as="geometry">
            <mxPoint x="250" y="733.5" as="sourcePoint" />
            <mxPoint x="300" y="733.5" as="targetPoint" />
            <Array as="points">
              <mxPoint x="492" y="630" />
              <mxPoint x="157" y="630" />
            </Array>
          </mxGeometry>
        </mxCell>
        <mxCell id="2JzpM0NDCvzyGTfC6hWj-42" style="edgeStyle=orthogonalEdgeStyle;rounded=0;orthogonalLoop=1;jettySize=auto;html=1;exitX=0.484;exitY=0.218;exitDx=0;exitDy=0;exitPerimeter=0;entryX=0.75;entryY=1;entryDx=0;entryDy=0;entryPerimeter=0;strokeColor=#660000;" parent="1" source="2JzpM0NDCvzyGTfC6hWj-16" target="2JzpM0NDCvzyGTfC6hWj-40" edge="1">
          <mxGeometry relative="1" as="geometry">
            <mxPoint x="166.5999999999999" y="708.4100000000001" as="sourcePoint" />
            <mxPoint x="90" y="590" as="targetPoint" />
            <Array as="points">
              <mxPoint x="363" y="630" />
              <mxPoint x="80" y="630" />
            </Array>
          </mxGeometry>
        </mxCell>
        <mxCell id="2JzpM0NDCvzyGTfC6hWj-43" value="image changes" style="edgeLabel;html=1;align=center;verticalAlign=middle;resizable=0;points=[];" parent="2JzpM0NDCvzyGTfC6hWj-42" vertex="1" connectable="0">
          <mxGeometry x="0.6371" y="-3" relative="1" as="geometry">
            <mxPoint x="6" y="13" as="offset" />
          </mxGeometry>
        </mxCell>
        <mxCell id="2JzpM0NDCvzyGTfC6hWj-44" style="edgeStyle=orthogonalEdgeStyle;rounded=0;orthogonalLoop=1;jettySize=auto;html=1;exitX=0.41;exitY=0.21;exitDx=0;exitDy=0;exitPerimeter=0;entryX=0.449;entryY=1.001;entryDx=0;entryDy=0;entryPerimeter=0;strokeColor=#660000;" parent="1" source="2JzpM0NDCvzyGTfC6hWj-40" target="2JzpM0NDCvzyGTfC6hWj-1" edge="1">
          <mxGeometry relative="1" as="geometry">
            <mxPoint x="372.5999999999999" y="705.26" as="sourcePoint" />
            <mxPoint x="90" y="590" as="targetPoint" />
            <Array as="points" />
          </mxGeometry>
        </mxCell>
        <mxCell id="2JzpM0NDCvzyGTfC6hWj-45" value="image changes" style="edgeLabel;html=1;align=center;verticalAlign=middle;resizable=0;points=[];rotation=-90;" parent="2JzpM0NDCvzyGTfC6hWj-44" vertex="1" connectable="0">
          <mxGeometry x="0.6371" y="-3" relative="1" as="geometry">
            <mxPoint x="-13" y="40" as="offset" />
          </mxGeometry>
        </mxCell>
        <mxCell id="2JzpM0NDCvzyGTfC6hWj-46" value="&amp;lt;&amp;lt;kustomize&amp;gt;&amp;gt;&lt;br&gt;polyfea-controller" style="shape=cube;whiteSpace=wrap;html=1;boundedLbl=1;backgroundOutline=1;darkOpacity=0.05;darkOpacity2=0.1;" parent="1" vertex="1">
          <mxGeometry x="702" y="365" width="120" height="80" as="geometry" />
        </mxCell>
        <mxCell id="2JzpM0NDCvzyGTfC6hWj-49" value="&amp;lt;&amp;lt;kustomize&amp;gt;&amp;gt;&lt;br&gt;FluxCD" style="shape=cube;whiteSpace=wrap;html=1;boundedLbl=1;backgroundOutline=1;darkOpacity=0.05;darkOpacity2=0.1;" parent="1" vertex="1">
          <mxGeometry x="702" y="290" width="120" height="80" as="geometry" />
        </mxCell>
        <mxCell id="2JzpM0NDCvzyGTfC6hWj-50" style="edgeStyle=orthogonalEdgeStyle;rounded=0;orthogonalLoop=1;jettySize=auto;html=1;strokeColor=#0000CC;entryX=0;entryY=0;entryDx=0;entryDy=30;entryPerimeter=0;exitX=0.998;exitY=0.532;exitDx=0;exitDy=0;exitPerimeter=0;" parent="1" source="2JzpM0NDCvzyGTfC6hWj-12" target="2JzpM0NDCvzyGTfC6hWj-49" edge="1">
          <mxGeometry relative="1" as="geometry">
            <mxPoint x="617" y="400" as="sourcePoint" />
            <mxPoint x="747" y="415" as="targetPoint" />
            <Array as="points">
              <mxPoint x="612" y="405" />
              <mxPoint x="675" y="405" />
              <mxPoint x="675" y="320" />
            </Array>
          </mxGeometry>
        </mxCell>
        <mxCell id="2JzpM0NDCvzyGTfC6hWj-52" value="&amp;lt;&amp;lt;kustomize&amp;gt;&amp;gt;&lt;br&gt;ambulance-ufe" style="shape=cube;whiteSpace=wrap;html=1;boundedLbl=1;backgroundOutline=1;darkOpacity=0.05;darkOpacity2=0.1;" parent="1" vertex="1">
          <mxGeometry x="702" y="493" width="120" height="80" as="geometry" />
        </mxCell>
        <mxCell id="2JzpM0NDCvzyGTfC6hWj-53" style="edgeStyle=orthogonalEdgeStyle;rounded=0;orthogonalLoop=1;jettySize=auto;html=1;strokeColor=#0000CC;entryX=0;entryY=0;entryDx=0;entryDy=30;entryPerimeter=0;exitX=0;exitY=0;exitDx=130;exitDy=43.5;exitPerimeter=0;" parent="1" source="2JzpM0NDCvzyGTfC6hWj-13" target="2JzpM0NDCvzyGTfC6hWj-52" edge="1">
          <mxGeometry relative="1" as="geometry">
            <mxPoint x="622.5" y="415" as="sourcePoint" />
            <mxPoint x="747.0000000000005" y="415" as="targetPoint" />
          </mxGeometry>
        </mxCell>
        <mxCell id="2JzpM0NDCvzyGTfC6hWj-54" value="deploys" style="edgeLabel;html=1;align=center;verticalAlign=middle;resizable=0;points=[];" parent="2JzpM0NDCvzyGTfC6hWj-53" vertex="1" connectable="0">
          <mxGeometry x="-0.3468" y="1" relative="1" as="geometry">
            <mxPoint x="-16" y="-14" as="offset" />
          </mxGeometry>
        </mxCell>
        <mxCell id="2JzpM0NDCvzyGTfC6hWj-57" value="" style="endArrow=none;html=1;rounded=0;strokeColor=#999999;" parent="1" edge="1">
          <mxGeometry width="50" height="50" relative="1" as="geometry">
            <mxPoint x="22" y="230" as="sourcePoint" />
            <mxPoint x="822" y="230" as="targetPoint" />
          </mxGeometry>
        </mxCell>
        <mxCell id="2JzpM0NDCvzyGTfC6hWj-58" value="" style="endArrow=none;html=1;rounded=0;strokeColor=#999999;" parent="1" edge="1">
          <mxGeometry width="50" height="50" relative="1" as="geometry">
            <mxPoint x="10" y="870" as="sourcePoint" />
            <mxPoint x="810" y="870" as="targetPoint" />
          </mxGeometry>
        </mxCell>
      </root>
    </mxGraphModel>
  </diagram>
</mxfile>
